<?xml version="1.0" encoding="UTF-8" standalone="no"?>
<!-- Created with Inkscape (http://www.inkscape.org/) -->

<svg
   xmlns:dc="http://purl.org/dc/elements/1.1/"
   xmlns:cc="http://creativecommons.org/ns#"
   xmlns:rdf="http://www.w3.org/1999/02/22-rdf-syntax-ns#"
   xmlns:svg="http://www.w3.org/2000/svg"
   xmlns="http://www.w3.org/2000/svg"
   xmlns:sodipodi="http://sodipodi.sourceforge.net/DTD/sodipodi-0.dtd"
   xmlns:inkscape="http://www.inkscape.org/namespaces/inkscape"
   width="72.833206mm"
   height="19.905676mm"
   viewBox="0 0 258.07041 70.531922"
   id="svg2"
   version="1.1"
   inkscape:version="0.91 r13725"
   sodipodi:docname="leafo.svg">
  <defs
     id="defs4" />
  <sodipodi:namedview
     id="base"
     pagecolor="#ffffff"
     bordercolor="#666666"
     borderopacity="1.0"
     inkscape:pageopacity="0.0"
     inkscape:pageshadow="2"
     inkscape:zoom="2.0000001"
     inkscape:cx="75.949399"
     inkscape:cy="2.220743"
     inkscape:document-units="px"
     inkscape:current-layer="layer2"
     showgrid="false"
     inkscape:window-width="1916"
     inkscape:window-height="1058"
     inkscape:window-x="0"
     inkscape:window-y="18"
     inkscape:window-maximized="1"
     showguides="false"
     fit-margin-top="1"
     fit-margin-right="1"
     fit-margin-bottom="1"
     fit-margin-left="1" />
  <metadata
     id="metadata7">
    <rdf:RDF>
      <cc:Work
         rdf:about="">
        <dc:format>image/svg+xml</dc:format>
        <dc:type
           rdf:resource="http://purl.org/dc/dcmitype/StillImage" />
        <dc:title></dc:title>
      </cc:Work>
    </rdf:RDF>
  </metadata>
  <g
     inkscape:groupmode="layer"
     id="layer2"
     inkscape:label="Layer 2"
     style="display:inline"
     transform="translate(-15.568493,-425.58287)">
    <path
       style="color:#000000;display:inline;overflow:visible;visibility:visible;opacity:1;fill:#1b244e;fill-opacity:1;fill-rule:nonzero;stroke:none;stroke-width:10;stroke-linejoin:round;stroke-miterlimit:4;stroke-dasharray:none;stroke-dashoffset:0;stroke-opacity:1;marker:none;enable-background:accumulate"
       d="m 193.24248,447.7961 0,5.50391 c -3.92054,-3.16901 -8.80845,-4.89918 -13.84961,-4.90235 -12.18072,-6.2e-4 -22.05531,9.87397 -22.05469,22.05469 4.7e-4,12.17996 9.87473,22.05335 22.05469,22.05273 5.04281,-0.007 9.9309,-1.74209 13.84961,-4.91601 l 0,4.98242 8.16601,0 0,-44.77539 z m -13.84961,8.81641 c 7.6429,7.7e-4 13.8382,6.19694 13.83789,13.83984 -7.7e-4,7.64214 -6.19575,13.83712 -13.83789,13.83789 -7.6429,3.1e-4 -13.83908,-6.19499 -13.83985,-13.83789 -3.1e-4,-7.64366 6.19619,-13.84015 13.83985,-13.83984 z"
       id="path4344"
       inkscape:connector-curvature="0"
       sodipodi:nodetypes="ccccccccccccccc" />
    <path
       style="color:#000000;display:inline;overflow:visible;visibility:visible;opacity:1;fill:#1b244e;fill-opacity:1;fill-rule:nonzero;stroke:none;stroke-width:10;stroke-linejoin:round;stroke-miterlimit:4;stroke-dasharray:none;stroke-dashoffset:0;stroke-opacity:1;marker:none;enable-background:accumulate"
       d="m 143.39713,448.46602 c -12.1792,4.6e-4 -22.05227,9.87354 -22.05273,22.05274 4.6e-4,12.17919 9.87354,22.05227 22.05273,22.05273 6.33254,-0.011 12.35481,-2.74357 16.53321,-7.50195 l -5.69532,-6.18555 c -2.61688,3.32198 -6.609,5.26517 -10.83789,5.27539 -3.31933,-0.002 -6.52734,-1.1971 -9.03906,-3.36718 l 26.2247,-24.06041 c -4.17961,-5.21757 -10.50033,-8.25761 -17.18555,-8.26563 z m 0,8.01368 c 1.60114,0.006 3.18916,0.28919 4.69336,0.83789 l -18.05859,16.57422 c -0.31322,-1.16498 -0.47278,-2.36592 -0.47461,-3.57227 -3.1e-4,-7.64366 6.19618,-13.84015 13.83984,-13.83984 z"
       id="path4344-8"
       inkscape:connector-curvature="0"
       sodipodi:nodetypes="ccccccccccccccc" />
    <path
       style="color:#000000;display:inline;overflow:visible;visibility:visible;opacity:1;fill:#1b244e;fill-opacity:1;fill-rule:nonzero;stroke:none;stroke-width:10;stroke-linejoin:round;stroke-miterlimit:4;stroke-dasharray:none;stroke-dashoffset:0;stroke-opacity:1;marker:none;enable-background:accumulate"
       d="m 248.04091,448.46407 a 22.053572,22.053572 0 0 0 -22.05273,22.05469 22.053572,22.053572 0 0 0 22.05273,22.05273 22.053572,22.053572 0 0 0 22.05469,-22.05273 22.053572,22.053572 0 0 0 -22.05469,-22.05469 z m 0,8.21484 a 13.839286,13.839286 0 0 1 13.83985,13.83985 13.839286,13.839286 0 0 1 -13.83985,13.83984 13.839286,13.839286 0 0 1 -13.83789,-13.83984 13.839286,13.839286 0 0 1 13.83789,-13.83985 z"
       id="path4344-8-3"
       inkscape:connector-curvature="0" />
    <path
       style="color:#000000;display:inline;overflow:visible;visibility:visible;opacity:1;fill:#1b244e;fill-opacity:1;fill-rule:nonzero;stroke:none;stroke-width:10;stroke-linejoin:round;stroke-miterlimit:4;stroke-dasharray:none;stroke-dashoffset:0;stroke-opacity:1;marker:none;enable-background:accumulate"
       d="m 225.98662,429.12618 c -12.08823,0.004 -21.93198,9.73858 -22.05663,21.82617 l 0,41.61914 8.20705,0 0,-24.24219 0.002,0.002 0,-3.11914 12.99414,0 0,-8.16602 -12.99414,0 0,-6.06445 0.0176,0 c 0.1075,-7.56271 6.2666,-13.63831 13.83008,-13.64258 0.83088,0.004 1.65975,0.0821 2.47656,0.23437 l 0,-8.28124 c -0.82175,-0.10179 -1.64858,-0.15722 -2.47656,-0.16602 z"
       id="path4344-8-3-6"
       inkscape:connector-curvature="0"
       sodipodi:nodetypes="ccccccccccccccccc" />
    <path
       style="color:#000000;display:inline;overflow:visible;visibility:visible;opacity:1;fill:#1b244e;fill-opacity:1;fill-rule:nonzero;stroke:none;stroke-width:10;stroke-linejoin:round;stroke-miterlimit:4;stroke-dasharray:none;stroke-dashoffset:0;stroke-opacity:1;marker:none;enable-background:accumulate"
       d="m 94.61784,430.42086 0,53.97461 -0.002,0 0,8.16602 0.002,0 0,0.01 8.16797,0 0,-0.01 13.04492,0 8.89843,-8.16602 -21.94335,0 0,-53.97461 z"
       id="rect4346-9"
       inkscape:connector-curvature="0"
       sodipodi:nodetypes="ccccccccccccc" />
    <path
       style="color:#000000;display:inline;overflow:visible;visibility:visible;opacity:1;fill:#b96ed0;fill-opacity:1;fill-rule:nonzero;stroke:none;stroke-width:10;stroke-linejoin:round;stroke-miterlimit:4;stroke-dasharray:none;stroke-dashoffset:0;stroke-opacity:1;marker:none;enable-background:accumulate"
       d="m 20.08221,492.57149 c 5.54436,-5.01313 10.59468,-9.90621 15.15441,-14.56828 0.14944,5.72373 3.63295,9.24311 4.06161,9.65787 -5.87952,2.83831 -12.37933,4.5587 -19.21602,4.91041 z m -0.83908,-0.91934 c -0.0699,-0.99702 -0.12112,-1.99435 -0.13133,-2.99392 0.009,-5.34184 0.87039,-10.49561 2.43453,-15.33925 0.54006,0.47248 1.39456,1.12358 2.68017,1.7803 2.0844,1.06476 5.25296,2.12193 9.76489,2.39318 -4.45209,4.53789 -9.36146,9.28908 -14.74826,14.15969 z m 20.59259,-4.24888 0.4548,-0.49615 c 0,0 -4.24759,-3.89331 -3.78191,-10.21968 3.5963,-3.71747 6.85642,-7.25825 9.81352,-10.59666 0.96353,7.1887 5.59661,11.33494 6.45723,12.05593 -3.78368,3.7384 -8.14916,6.87132 -12.94364,9.25656 z m 13.82649,-10.13942 c -0.59372,-0.48744 -5.67266,-4.84018 -6.20429,-12.45478 3.76975,-4.30193 6.92505,-8.1492 9.5995,-11.53302 0.88473,3.6138 2.31274,6.20379 3.58735,7.92135 1.10894,1.49432 1.93935,2.18675 2.33238,2.4929 -2.35848,5.05111 -5.5169,9.63011 -9.31494,13.57355 z m -18.49612,-0.97041 c -4.95178,-0.14264 -8.28755,-1.2367 -10.37534,-2.3032 -1.67207,-0.85412 -2.51436,-1.63995 -2.81637,-1.95784 1.75899,-4.97986 4.27642,-9.60842 7.43006,-13.73649 1.33585,1.50527 6.5074,6.58812 15.96187,6.99957 -3.06501,3.45899 -6.44407,7.13127 -10.20022,10.99796 z M 46.43157,464.0916 c -10.33551,-0.0503 -15.42659,-5.76972 -16.24399,-6.77583 3.22358,-4.00864 7.05139,-7.51692 11.35791,-10.38021 0.47928,0.53579 1.42004,1.45634 3.06931,2.41509 2.3107,1.34321 5.97339,2.72751 11.43086,3.20064 -2.67587,3.3841 -5.83609,7.23314 -9.61409,11.54031 z m 38.964683,-0.0656 c -8.05356,0.3239 -15.441033,-5.06267 -18.372093,-13.396 -0.68888,4.17198 -1.88831,8.14943 -3.51681,11.88567 -0.4295,-0.36949 -1.03892,-0.95282 -1.86056,-2.06 -1.29353,-1.74305 -2.78488,-4.47708 -3.59708,-8.44181 4.47205,-5.72874 7.02181,-9.41395 8.06728,-10.98093 0.81221,1.13917 3.18692,4.44324 6.792853,8.90148 4.05379,5.01195 9.06918,10.68511 13.44951,13.99674 -0.32106,0.0324 -0.64072,0.0808 -0.9631,0.0949 z m 1.95297,-0.90474 c -4.22992,-3.13135 -9.36782,-8.89646 -13.4714,-13.96998 -3.859273,-4.77145 -6.495253,-8.47417 -7.023903,-9.22009 l -0.5302,-0.69072 -0.49615,-0.0146 c 0,0 -3.00581,4.66337 -8.86014,12.15319 -5.76314,-0.38428 -9.47105,-1.79548 -11.72515,-3.10579 -1.43348,-0.83328 -2.21905,-1.56185 -2.64613,-2.02108 6.60564,-4.15752 14.26217,-6.83102 22.53097,-7.52247 l 0,-7.19659 2.30564,0 0,7.19659 0.44993,0 c 8.674643,0.0339 19.279553,8.33975 19.753523,19.83376 0.0593,1.52892 -0.0436,3.05555 -0.28699,4.55776 z"
       id="path4787"
       inkscape:connector-curvature="0" />
  </g>
</svg>
